<?xml version="1.0" encoding="UTF-8" standalone="no"?>
<!DOCTYPE svg PUBLIC "-//W3C//DTD SVG 1.1//EN" "http://www.w3.org/Graphics/SVG/1.1/DTD/svg11.dtd">
<svg width="100%" height="100%" viewBox="0 0 233 52" version="1.1" xmlns="http://www.w3.org/2000/svg" xmlnsXlink="http://www.w3.org/1999/xlink" xmlSpace="preserve" xmlnsSerif="http://www.serif.com/" style="fill-rule:evenodd;clip-rule:evenodd;stroke-linejoin:round;stroke-miterlimit:2;">
    <g transform="matrix(1,0,0,1,-35,-124)">
        <rect x="0" y="0" width="300" height="300" style="fill:white;fill-opacity:0;"/>
    </g>
    <g id="af490a86-05af-4786-92f1-24f7b461607c" transform="matrix(2.28746,0,0,2.28746,53.7609,13.671)">
        <path d="M5.4,10.05C2.63,10.05 2.07,7.69 2.07,5.53C2.07,2.53 3.16,1.15 5.4,1.15C5.95,1.15 6.64,1.25 7.22,1.41L7.9,3.29L8.48,3.19L8.48,1.29C7.52,0.73 6.66,0.46 5.4,0.46C1.99,0.46 0.42,3.01 0.42,5.6C0.42,8.19 1.76,10.74 5.4,10.74C6.57,10.74 7.78,10.42 8.48,9.91L8.48,7.91L7.9,7.81L7.18,9.79C6.65,9.95 5.91,10.05 5.4,10.05ZM14.22,0.46C11.1,0.46 9.55,3.01 9.55,5.6C9.55,8.19 10.88,10.74 14.22,10.74C17.56,10.74 18.89,8.5 18.89,5.6C18.89,2.7 17.33,0.46 14.22,0.46ZM14.22,1.15C16.31,1.15 17.25,2.62 17.25,5.53C17.25,8.43 16.35,10.05 14.22,10.05C12.1,10.05 11.2,8.51 11.2,5.53C11.2,2.53 12.12,1.15 14.22,1.15ZM24.14,1.29C26.52,1.29 27.61,3.12 27.61,5.5C27.61,7.88 26.52,9.91 24.14,9.91L22.92,9.91L22.92,1.29L24.14,1.29ZM24.09,10.5C27.61,10.5 29.25,8.25 29.25,5.53C29.25,2.81 27.64,0.7 24.14,0.7L20.31,0.7L20.22,1.29L21.43,1.75L21.43,9.45L20.23,9.91L20.33,10.5L24.09,10.5ZM33.75,0.7L30.52,9.45L29.32,9.91L29.41,10.5L32.61,10.5L32.7,9.91L31.26,9.45L32.06,7.2L35.73,7.2L36.51,9.45L35.31,9.91L35.41,10.5L39.21,10.5L39.33,9.91L38.12,9.45L34.97,0.46L33.75,0.7ZM34.1,1.78L34.1,2.49L35.52,6.61L32.28,6.61L34.1,1.78ZM46.13,1.29L47.24,1.29C48.59,1.29 49.1,2.07 49.1,3.04C49.1,4 48.31,4.79 47.35,4.79L46.72,4.79L46.72,5.38L47.82,5.38C49.13,5.38 50.06,6.43 50.06,7.66C50.06,8.89 49.28,9.91 48.15,9.91L46.13,9.91L46.13,1.29ZM48.55,10.5C50.5,10.5 51.7,9.3 51.7,7.81C51.7,6.33 50.5,5.12 49.01,5.12L49.01,5.07C49.99,4.84 50.74,3.96 50.74,2.91C50.74,1.69 49.7,0.7 48.33,0.7L43.53,0.7L43.43,1.29L44.65,1.75L44.65,9.45L43.44,9.91L43.55,10.5L48.55,10.5ZM53.4,5.47L53.9,5.57L54.19,4.49C54.59,4.35 55.02,4.33 55.38,4.33C56.21,4.33 56.78,4.8 56.78,5.8L56.78,6.54C54.96,6.54 52.84,6.85 52.84,8.81C52.84,10.02 53.75,10.65 54.92,10.65C55.89,10.65 56.27,10.43 56.81,10L57.05,10.5L58.91,10.5L59.01,10L58.1,9.7L58.1,6.38C58.1,4.73 57.2,3.81 55.47,3.81C54.75,3.81 54.1,3.96 53.4,4.31L53.4,5.47ZM56.78,9.23C56.49,9.73 56.04,10 55.48,10C54.92,10 54.32,9.67 54.32,8.67C54.32,7.64 55.02,7.04 56.78,7.04L56.78,9.23ZM61.87,9.7L61.87,4.84C62.31,4.63 62.82,4.47 63.36,4.47C64.11,4.47 64.75,5 64.75,5.89L64.75,9.7L63.84,10L63.95,10.5L66.88,10.5L66.98,10L66.07,9.7L66.07,6.1C66.07,4.62 65.21,3.81 63.69,3.81C62.96,3.81 62.45,4.05 61.87,4.33L61.36,3.81L59.75,3.96L59.85,4.47L60.55,4.47L60.55,9.7L59.64,10L59.74,10.5L62.68,10.5L62.79,10L61.87,9.7ZM70.25,9.7L70.25,0.2L69.62,0.04L68.14,0.2L68.24,0.7L68.94,0.7L68.94,9.7L68.03,10L68.12,10.5L71.06,10.5L71.16,10L70.25,9.7ZM74.52,3.96L74.63,4.47L74.27,4.58C73.85,4.7 73.51,4.9 73.19,5.21L71.27,7.04L72.25,7.31L73.93,9.7L74.86,10L74.75,10.5L72.42,10.5L72.53,10L70.69,7.36L70.69,6.89L72.91,4.76L71.92,4.47L72.02,3.96L74.52,3.96Z" style="fill:rgb(52,33,3);fill-rule:nonzero;"/>
    </g>
    <g id="_07cff9c7-0c5c-4fac-beb4-dd7264c2dca2" serifId="07cff9c7-0c5c-4fac-beb4-dd7264c2dca2" transform="matrix(0.765028,0,0,0.765028,5,7.639)">
        <path d="M47.732,27.045L37.604,27.045C37.486,27.045 37.383,27.126 37.355,27.241C36.183,32.219 32.212,36.191 27.238,37.362C27.123,37.39 27.042,37.493 27.042,37.611L27.042,47.74C27.043,47.88 27.158,47.995 27.298,47.995L27.331,47.993C38.06,46.561 46.554,38.066 47.986,27.335C47.995,27.262 47.973,27.188 47.925,27.132C47.876,27.077 47.806,27.045 47.732,27.045Z" style="fill:url(#_Linear1);fill-rule:nonzero;"/>
        <path d="M24.112,10.484C30.454,10.484 35.899,14.807 37.354,20.999C37.381,21.113 37.484,21.194 37.603,21.194L47.732,21.194C47.737,21.196 47.741,21.194 47.745,21.194C47.885,21.194 48,21.079 48,20.939C48,20.901 47.992,20.863 47.975,20.828C46.348,8.952 36.104,0.005 24.112,0.005C10.817,0.005 0,10.822 0,24.12C0,36.138 8.982,46.399 20.895,47.993L20.929,47.995L20.932,47.995C21.07,47.995 21.184,47.881 21.184,47.743L21.184,37.611C21.184,37.493 21.103,37.389 20.988,37.362C14.798,35.906 10.474,30.46 10.474,24.12C10.474,16.601 16.592,10.484 24.112,10.484Z" style="fill:url(#_Linear2);fill-rule:nonzero;"/>
    </g>
    <defs>
        <linearGradient id="_Linear1" x1="0" y1="0" x2="1" y2="0" gradientUnits="userSpaceOnUse" gradientTransform="matrix(18.9836,8.85385,-8.85385,18.9836,27.042,27.045)"><stop offset="0" style="stop-color:rgb(0,72,120);stop-opacity:1"/><stop offset="1" style="stop-color:rgb(210,46,30);stop-opacity:1"/></linearGradient>
        <linearGradient id="_Linear2" x1="0" y1="0" x2="1" y2="0" gradientUnits="userSpaceOnUse" gradientTransform="matrix(43.5032,20.2815,-20.2815,43.5032,-4.33681e-19,0.005)"><stop offset="0" style="stop-color:rgb(0,72,120);stop-opacity:1"/><stop offset="1" style="stop-color:rgb(210,46,30);stop-opacity:1"/></linearGradient>
    </defs>
</svg>
